<?xml version="1.0" encoding="utf-8"?>
<!-- Generator: Adobe Illustrator 15.1.0, SVG Export Plug-In . SVG Version: 6.00 Build 0)  -->
<!DOCTYPE svg PUBLIC "-//W3C//DTD SVG 1.1//EN" "http://www.w3.org/Graphics/SVG/1.1/DTD/svg11.dtd">
<svg version="1.1" id="Layer_1" xmlns="http://www.w3.org/2000/svg" xmlns:xlink="http://www.w3.org/1999/xlink" x="0px" y="0px"
	 width="197px" height="30px" viewBox="0 0 197 30" enable-background="new 0 0 197 30" xml:space="preserve">
<g>
	<path d="M65.04,24.998l-6.181-7.742v7.742H55V7.3h3.859v7.265L65.065,7.3h4.516l-7.114,8.498l7.266,9.2H65.04z"/>
	<path d="M83.031,18.511c0,4.1-2.7,6.789-6.56,6.789c-3.885,0-6.584-2.689-6.584-6.789c0-4.096,2.7-6.812,6.584-6.812
		C80.331,11.699,83.031,14.415,83.031,18.511z M79.347,18.511c0-2.135-1.085-3.644-2.876-3.644c-1.816,0-2.901,1.509-2.901,3.644
		c0,2.114,1.085,3.622,2.901,3.622C78.262,22.133,79.347,20.625,79.347,18.511z"/>
	<path d="M97.488,12.001v12.997h-3.683V19.92h-4.616v5.078h-3.683V12.001h3.683v4.752h4.616v-4.752H97.488z"/>
	<path d="M108.895,20.323h3.507c-0.229,2.814-2.474,4.977-5.955,4.977c-3.984,0-6.482-2.865-6.482-6.789
		c0-3.896,2.498-6.812,6.482-6.812c3.607,0,5.652,2.338,5.93,4.953h-3.532c-0.252-0.83-0.958-1.786-2.397-1.786
		c-1.715,0-2.799,1.458-2.799,3.644c0,2.213,1.109,3.622,2.824,3.622C107.985,22.133,108.667,21.203,108.895,20.323z"/>
	<path d="M125.875,16.5v8.498h-3.405v-1.407c-0.807,1.055-2.17,1.709-3.859,1.709c-2.523,0-4.541-1.509-4.541-4.122
		c0-2.667,2.018-4.198,5.348-4.198h2.852v-0.604c0-1.207-0.908-1.835-2.145-1.835c-1.262,0-1.918,0.578-2.119,1.257h-3.432
		c0.354-2.238,2.297-4.099,5.701-4.099C123.63,11.699,125.875,13.333,125.875,16.5z M122.269,20.096v-0.578h-2.574
		c-1.135,0-1.941,0.553-1.941,1.482c0,0.905,0.731,1.46,1.866,1.46C121.032,22.46,122.269,21.605,122.269,20.096z"/>
	<path d="M140.938,12.001v12.997h-3.684v-9.829h-3.329l-0.378,4.7c-0.278,3.671-1.792,5.18-4.844,5.18h-0.984v-3.167h0.454
		c1.262,0,1.791-0.629,1.893-2.264l0.605-7.617H140.938z"/>
	<path d="M154.69,15.169h-3.91v9.829h-3.683v-9.829h-3.911v-3.168h11.504V15.169z"/>
	<path d="M169.073,12.001v12.997h-3.608v-7.593l-5.045,7.593h-3.481V12.001h3.607v7.541l5.045-7.541H169.073z"/>
	<path d="M184.237,12.001v12.997h-3.684V19.92h-4.616v5.078h-3.683V12.001h3.683v4.752h4.616v-4.752H184.237z"/>
	<path d="M196.677,15.169h-5.574v9.829h-3.684V12.001h9.258V15.169z"/>
</g>
<g>
	<defs>
		<rect id="SVGID_1_" x="36" width="6" height="30"/>
	</defs>
	<clipPath id="SVGID_2_">
		<use xlink:href="#SVGID_1_"  overflow="visible"/>
	</clipPath>
	
		<linearGradient id="SVGID_3_" gradientUnits="userSpaceOnUse" x1="-319.7568" y1="315.2959" x2="-318.9598" y2="315.2959" gradientTransform="matrix(0 -51.2498 -51.2498 0 16197.8721 -16351.2383)">
		<stop  offset="0" style="stop-color:#0B5CAA"/>
		<stop  offset="1" style="stop-color:#14AAE2"/>
	</linearGradient>
	<rect x="36" clip-path="url(#SVGID_2_)" fill="url(#SVGID_3_)" width="6" height="30"/>
</g>
<g>
	<defs>
		<polygon id="SVGID_4_" points="12,0.021 12,12 0,12 0,18 12,18 12,30.01 18,30.01 18,18 29.989,18 29.989,12 18,12 18,0.021 		"/>
	</defs>
	<clipPath id="SVGID_5_">
		<use xlink:href="#SVGID_4_"  overflow="visible"/>
	</clipPath>
	
		<linearGradient id="SVGID_6_" gradientUnits="userSpaceOnUse" x1="-319.7573" y1="315.1738" x2="-318.9593" y2="315.1738" gradientTransform="matrix(0 -51.2498 -51.2498 0 16167.6533 -16351.2383)">
		<stop  offset="0" style="stop-color:#0B5CAA"/>
		<stop  offset="1" style="stop-color:#14AAE2"/>
	</linearGradient>
	<rect clip-path="url(#SVGID_5_)" fill="url(#SVGID_6_)" width="30" height="30"/>
</g>
</svg>
